<svg viewBox="0 0 100 140" width="100" height="140" xmlns="http://www.w3.org/2000/svg">
  <path d="M 50 5 A 45 45 0 0 0 5 50 C 5 80 30 110 50 135 C 70 110 95 80 95 50 A 45 45 0 0 0 50 5 Z" fill="#0B64C0"/>
  <circle cx="50" cy="50" r="32" fill="#FFFFFF"/>
  <rect x="30" y="36" width="40" height="5" rx="1.5" fill="#0B64C0"/>
  <rect x="28" y="48" width="44" height="5" rx="1.5" fill="#0B64C0"/>
  <rect x="36" y="36" width="4" height="12" fill="#0B64C0"/>
  <rect x="60" y="36" width="4" height="12" fill="#0B64C0"/>
  <rect x="32" y="48" width="4" height="16" rx="1" fill="#0B64C0"/>
  <rect x="64" y="48" width="4" height="16" rx="1" fill="#0B64C0"/>
</svg>
