<svg viewBox="0 0 100 140" width="100" height="140" xmlns="http://www.w3.org/2000/svg">
  <path d="M 50 5 A 45 45 0 0 0 5 50 C 5 80 30 110 50 135 C 70 110 95 80 95 50 A 45 45 0 0 0 50 5 Z" fill="#0B64C0"/>
  <circle cx="50" cy="50" r="32" fill="#FFFFFF"/>
  <path d="M 50 43 L 41 33 L 46 33 L 46 25 L 54 25 L 54 33 L 59 33 Z" fill="#0B64C0"/>
  <rect x="34" y="47" width="32" height="18" rx="4" fill="#0B64C0"/>
  <rect x="38" y="50" width="24" height="7" rx="1.5" fill="#FFFFFF"/>
  <circle cx="40" cy="61" r="2" fill="#FFFFFF"/>
  <circle cx="60" cy="61" r="2" fill="#FFFFFF"/>
  <rect x="38" y="65" width="6" height="4" rx="1" fill="#0B64C0"/>
  <rect x="56" y="65" width="6" height="4" rx="1" fill="#0B64C0"/>
</svg>
